<svg xmlns:rdf="http://www.w3.org/1999/02/22-rdf-syntax-ns#" xmlns="http://www.w3.org/2000/svg" height="346.6" width="891.4" version="1.1" xmlns:cc="http://creativecommons.org/ns#" xmlns:dc="http://purl.org/dc/elements/1.1/" viewBox="0 0 713.143 277.262">
 <defs>
  <clipPath id="b">
   <path d="m595 70h54.27v66h-54.27z"/>
  </clipPath>
  <clipPath id="a">
   <path d="m145 146h499v67.81h-499z"/>
  </clipPath>
 </defs>
 <rect style="color-rendering:auto;text-decoration-color:#000000;color:#98cc96;shape-rendering:auto;solid-color:#000000;text-decoration-line:none;fill:#fff;mix-blend-mode:normal;opacity:.99;image-rendering:auto;white-space:normal;text-decoration-style:solid;isolation:auto" height="245.3" width="681.1" y="16" x="16"/>
 <g transform="translate(32 32.06)">
  <path style="fill:#513f17" d="m185.8 14.49c-3.3-3.53-6.4-4.49-9.6-4.49-9.355 0-15.57 7.168-15.57 16.21 0 9.672 6.211 16.85 15.57 16.85 3.649 0 7.184-1.668 10.2-5.504l6.664 4.746c-4.101 5.625-10.25 8.062-16.92 8.062-13.97 0-23.96-9.48-23.96-23.64 0-14.54 9.996-24.03 23.96-24.03 6.157 0 11.4 1.984 15.88 7.176l-6.273 4.617"/>
  <path style="fill:#513f17" d="m208.4 24.99v-6.535h6.343v-8.906h7.696v8.906h8.449v6.535h-8.449v13.46c0 3.078.886 4.992 4.293 4.992 1.332 0 3.191-.25 4.156-.957v6.473c-1.602.7735-4.285 1.027-6.09 1.027-8.133 0-10.06-3.656-10.06-10.9v-14.1h-6.343"/>
  <path style="fill:#513f17" d="m238.3 57.67c3.778 0 4.801-1.344 6.09-4.547l1.469-3.652-13.14-31.02h8.469l8.586 21.34h.117l7.695-21.34h8.012l-14.55 37.36c-2.242 5.766-5.851 8.648-12.64 8.648l-.106-6.793"/>
  <path style="fill:#513f17" d="m294 43.06c5.636 0 9.039-4.422 9.039-9.223 0-4.805-3.403-9.234-9.039-9.234-5.641 0-9.036 4.43-9.036 9.234 0 4.801 3.395 9.223 9.036 9.223zm0-25.37c9.289 0 16.72 6.461 16.72 16.15 0 9.668-7.433 16.14-16.72 16.14-9.297 0-16.73-6.477-16.73-16.14 0-9.688 7.434-16.15 16.73-16.15"/>
  <path style="fill:#513f17" d="m318.1 24.99h-6.335v-6.535h6.335v-4.352c0-8.523 1.926-14.1 11.47-14.1 1.672 0 3.274.1328 4.875.4531l-.512 6.531c-1.089-.2578-2.117-.4492-3.199-.4492-4.297 0-4.937 2.945-4.937 6.348v5.566h7.105v6.535h-7.105v24.23h-7.7v-24.23"/>
  <g clip-path="url(#b)">
   <path style="fill:#0f3f78" d="m603.9 115.7c5.5 5.379 11.51 8.133 20.04 8.133 7.257 0 12.52-2.754 12.52-8.133 0-4.512-3.383-5.883-7.762-6.266l-11.27-1c-10.52-.879-18.28-7.144-18.28-18.04 0-12.89 10.26-19.53 23.67-19.53 11.14 0 18.67 3.379 24.92 8.637l-7.875 9.27c-5.012-3.504-10.16-5.879-17.04-5.879-8.137 0-10.9 3.254-10.9 7.633 0 2.754 2.004 5.512 8.387 6.008l10.52.7578c13.15.8672 18.42 8.894 18.42 19.03 0 12.4-11.52 19.54-26.31 19.54-10.26 0-19.77-3.75-27.92-11.39l8.898-8.765"/>
  </g>
  <path style="fill:#0f3f78" d="m264 58.6h12.78v13.03h9.258v9.77h-9.258v36.94c0 3.515 1.368 4.758 4.508 4.758h4.75v12.03h-6.633c-8.898 0-15.41-5.637-15.41-15.65v-38.08h-6.391v-9.77h6.391v-13.03"/>
  <path style="fill:#0f3f78" d="m459.3 45.96h12.78v72.76c0 2.879 1.629 4.375 4.754 4.375h4.386v12.03h-5.632c-9.278 0-16.28-4.016-16.28-15.41v-73.76"/>
  <path style="fill:#0f3f78" d="m487.3 45.96h12.77v72.76c0 2.879 1.633 4.375 4.754 4.375h4.387v12.03h-5.641c-9.262 0-16.27-4.016-16.27-15.41v-73.76"/>
  <path style="fill:#0f3f78" d="m516.7 135.1h12.78v-56.73h-12.78z"/>
  <path style="fill:#0f3f78" d="m516.7 74.26h12.78v-12.78h-12.78z"/>
  <path style="fill:#513f17" d="m196.7 49.21h7.656v-30.76h-7.656z"/>
  <path style="fill:#513f17" d="m196.7 15.89h7.656v-7.656h-7.656z"/>
  <path style="fill:#0f3f78" d="m538.9 71.63h12.77v6.762h.254c4.008-5.004 9.766-7.508 16.53-7.508 9.898 0 21.17 7.641 21.17 22.04v42.2h-12.77v-37.82c0-8.641-5.387-13.65-12.52-13.65-7.262 0-12.66 5.012-12.66 13.65v37.82h-12.77v-63.5"/>
  <path style="fill:#0f3f78" d="m211.4 71.63h12.78v6.762h.25c4.004-5.004 9.766-7.508 16.53-7.508 5.129 0 9.391 1.875 13.27 4.883l-9.266 11.02c-3.008-2.258-5.129-3.133-8.387-3.133-6.261 0-12.4 4.008-12.4 13.28v38.19h-12.78v-63.5"/>
  <path style="fill:#0f3f78" d="m401.5 103.5c0-11.28 9.172-20.45 20.45-20.45s20.46 9.168 20.46 20.45c0 11.27-9.18 20.45-20.46 20.45s-20.45-9.176-20.45-20.45zm-12.17 0c0 17.98 14.64 32.62 32.62 32.62 17.99 0 32.63-14.64 32.63-32.62 0-17.99-14.64-32.63-32.63-32.63-17.98 0-32.62 14.64-32.62 32.63"/>
  <path style="fill:#0f3f78" d="m308.9 91.5c0 24.28 19.75 44.03 44.03 44.03 13.85 0 27.06-6.636 35.34-17.76l-9.765-7.27c-6.082 8.172-15.4 12.85-25.57 12.85-17.57 0-31.86-14.29-31.86-31.85 0-17.57 14.29-31.86 31.86-31.86 9.546 0 18.52 4.234 24.6 11.61l9.395-7.738c-8.403-10.2-20.8-16.05-34-16.05-24.28 0-44.03 19.75-44.03 44.04"/>
  <path style="fill:#0f3f78" d="m152.9 103.5c0-11.28 9.176-20.45 20.44-20.45 11.28 0 20.45 9.168 20.45 20.45 0 11.27-9.172 20.45-20.45 20.45-11.27 0-20.44-9.176-20.44-20.45zm-12.18 0c0 17.98 14.64 32.62 32.62 32.62s32.62-14.64 32.62-32.62c0-17.99-14.64-32.63-32.62-32.63s-32.62 14.64-32.62 32.63"/>
  <path style="fill:#513f17" d="m117.7 135.1-6.332-1.282-7.571 6.547-1.3-8.484-17.8-3.578-7.59 7.465-2.289-8.961c-45.69 4-74.82 58.8-74.82 58.8s42.5-49.11 72.07-51.97l3.512 11.34 10.98-10.66 11.24 2.656 2.457 12.24 11.18-8.468 4.847 1.164c51.56 96.84 139.7 43.02 139.7 43.02-97.48 12.65-103.9-30.34-138.3-49.68"/>
  <path style="fill:#0f3f78" d="m100.5 97.05h37.07v-12.03h-37.07v-26.29h43.46v-12.77h-56.99v76.32l13.53 2.719v-27.95"/>
  <g clip-path="url(#a)">
   <path style="fill:#0f3f78" d="m145.5 186.5c104.7 80.66 220.2-136.7 498.2 16.02 0 0-139.4-73.12-292.3-17.16-169.4 61.98-205.9 1.145-205.9 1.145"/>
  </g>
 </g>
</svg>
