<?xml version="1.0" encoding="utf-8"?>
<!-- Generator: Adobe Illustrator 16.0.0, SVG Export Plug-In . SVG Version: 6.00 Build 0)  -->
<!DOCTYPE svg PUBLIC "-//W3C//DTD SVG 1.1//EN" "http://www.w3.org/Graphics/SVG/1.1/DTD/svg11.dtd">
<svg version="1.1" id="Layer_1" xmlns="http://www.w3.org/2000/svg" xmlns:xlink="http://www.w3.org/1999/xlink" x="0px" y="0px"
	 width="204px" height="49.34px" viewBox="0 0 204 49.34" enable-background="new 0 0 204 49.34" xml:space="preserve">
<g>
	<g>
		<path fill="#A7A9AC" d="M16.286,31.613c2.481,0,4.1-1.039,4.37-5.877h-8.784C12.157,30.559,13.848,31.613,16.286,31.613z"/>
		<g>
			<path fill="#A7A9AC" d="M15.235,23.438c0.72-0.719,0.72-1.881,0-2.602c-0.718-0.715-1.881-0.715-2.6,0
				c-0.647,0.65-0.71,1.66-0.188,2.379l-0.399,0.809l0.809-0.398C13.575,24.148,14.587,24.086,15.235,23.438z"/>
			<path fill="#A7A9AC" d="M10.85,18.322c-0.505-0.504-1.322-0.504-1.827,0c-0.504,0.506-0.504,1.324,0,1.83
				c0.455,0.453,1.165,0.496,1.669,0.131l0.567,0.283l-0.279-0.572C11.349,19.488,11.305,18.777,10.85,18.322z"/>
			<path fill="#A7A9AC" d="M13.199,15.555c0.32-0.322,0.32-0.846,0-1.17c-0.324-0.318-0.846-0.318-1.167,0
				c-0.291,0.293-0.318,0.746-0.087,1.068l-0.179,0.361l0.364-0.176C12.454,15.873,12.906,15.846,13.199,15.555z"/>
		</g>
	</g>
	<path fill="#F7901E" d="M22.231,12.514v2.801c-0.575-0.746-1.169-1.305-1.784-1.744l-2.062,2.062
		c3.269,1.08,3.798,4.822,3.798,8.572c0,4.443-0.727,8.889-5.896,8.889c-5.168,0-5.942-4.445-5.942-8.889
		c0-0.18,0.004-0.357,0.006-0.539l-3.364,3.367c0.259,2.781,1.002,5.295,2.777,7.074c1.258,1.258,3.335,2.127,5.751,2.127
		c2.561,0,4.735-0.627,6.669-3.092v3.721c0,4.059-1.934,7.293-6.523,7.293c-2.755,0-3.96-0.818-5.701-2.365l-2.269,2.221
		c2.51,2.27,4.49,3.189,8.066,3.189c6.232,0,9.903-4.301,9.903-10.193V12.514H22.231z"/>
	<g>
		<path fill="#F7901E" d="M47.69,36.318v-2.258c-1.92,1.922-3.648,2.545-6.816,2.545c-3.264,0-5.184-0.623-6.672-2.16
			c-1.152-1.152-1.775-2.928-1.775-4.801c0-4.127,2.879-6.816,8.16-6.816h7.104v-2.256c0-3.457-1.727-5.184-6.049-5.184
			c-3.023,0-4.559,0.719-5.951,2.688l-2.354-2.16c2.113-2.736,4.514-3.504,8.354-3.504c6.336,0,9.457,2.734,9.457,7.871v16.035
			H47.69z M47.69,25.42h-6.623c-3.553,0-5.281,1.441-5.281,4.176c0,2.738,1.68,4.033,5.424,4.033c2.018,0,3.793-0.143,5.281-1.584
			c0.816-0.768,1.199-2.113,1.199-4.08V25.42z"/>
		<path fill="#F7901E" d="M65.01,36.318c-4.129,0-6-2.689-6-6.289V2.139h3.457v27.746c0,2.305,0.768,3.457,3.168,3.457h1.871v2.977
			H65.01z"/>
		<path fill="#F7901E" d="M81.963,36.318h-3.07l-8.641-23.619h3.742l6.434,18.963l6.48-18.963h3.746L81.963,36.318z"/>
		<path fill="#F7901E" d="M108.914,36.318v-2.258c-1.922,1.922-3.648,2.545-6.818,2.545c-3.264,0-5.184-0.623-6.672-2.16
			c-1.152-1.152-1.777-2.928-1.777-4.801c0-4.127,2.881-6.816,8.162-6.816h7.105v-2.256c0-3.457-1.727-5.184-6.05-5.184
			c-3.023,0-4.559,0.719-5.951,2.688l-2.354-2.16c2.113-2.736,4.514-3.504,8.354-3.504c6.337,0,9.458,2.734,9.458,7.871v16.035
			H108.914z M108.914,25.42h-6.625c-3.553,0-5.281,1.441-5.281,4.176c0,2.738,1.68,4.033,5.424,4.033
			c2.017,0,3.794-0.143,5.283-1.584c0.816-0.768,1.199-2.113,1.199-4.08V25.42z"/>
		<path fill="#F7901E" d="M134.887,36.318V21.771c0-4.176-2.258-6.289-5.809-6.289s-5.855,2.16-5.855,6.289v14.547h-3.457V12.699
			h3.457v2.592c1.68-1.92,3.984-2.879,6.621-2.879c2.547,0,4.609,0.768,6.051,2.207c1.68,1.633,2.449,3.84,2.449,6.578v15.121
			H134.887z"/>
		<path fill="#F7901E" d="M145.867,36.318V12.699h3.457v23.619H145.867z"/>
		<path fill="#F7901E" d="M156.09,36.318v-2.977l13.152-17.57h-12.434v-3.072h16.418v2.928l-13.203,17.617h13.203v3.074H156.09z"/>
		<path fill="#F7901E" d="M181.078,25.42c0,5.184,2.449,8.16,6.961,8.16c2.734,0,4.32-0.816,6.191-2.688l2.352,2.064
			c-2.398,2.4-4.609,3.648-8.641,3.648c-6.238,0-10.32-3.744-10.32-12.096c0-7.633,3.695-12.098,9.695-12.098
			c6.098,0,9.699,4.416,9.699,11.424v1.584H181.078z M192.84,18.893c-0.914-2.16-3.027-3.553-5.523-3.553s-4.605,1.393-5.52,3.553
			c-0.527,1.297-0.625,2.016-0.719,3.936h12.48C193.461,20.908,193.367,20.189,192.84,18.893z"/>
	</g>
</g>
</svg>
