<?xml version="1.0" encoding="UTF-8" standalone="no"?>
<!-- Created with Inkscape (http://www.inkscape.org/) -->

<svg
   xmlns:dc="http://purl.org/dc/elements/1.1/"
   xmlns:cc="http://creativecommons.org/ns#"
   xmlns:rdf="http://www.w3.org/1999/02/22-rdf-syntax-ns#"
   xmlns:svg="http://www.w3.org/2000/svg"
   xmlns="http://www.w3.org/2000/svg"
   xmlns:sodipodi="http://sodipodi.sourceforge.net/DTD/sodipodi-0.dtd"
   xmlns:inkscape="http://www.inkscape.org/namespaces/inkscape"
   id="svg3336"
   version="1.1"
   inkscape:version="0.91 r13725"
   xml:space="preserve"
   width="270"
   height="270"
   viewBox="0 0 270 270"
   sodipodi:docname="fcbikecoop.svg"><metadata
     id="metadata3342"><rdf:RDF><cc:Work
         rdf:about=""><dc:format>image/svg+xml</dc:format><dc:type
           rdf:resource="http://purl.org/dc/dcmitype/StillImage" /><dc:title></dc:title></cc:Work></rdf:RDF></metadata><defs
     id="defs3340"><clipPath
       clipPathUnits="userSpaceOnUse"
       id="clipPath3350"><path
         d="M 0,216 216,216 216,0 0,0 0,216 Z"
         id="path3352"
         inkscape:connector-curvature="0" /></clipPath></defs><sodipodi:namedview
     pagecolor="#ffffff"
     bordercolor="#666666"
     borderopacity="1"
     objecttolerance="10"
     gridtolerance="10"
     guidetolerance="10"
     inkscape:pageopacity="0"
     inkscape:pageshadow="2"
     inkscape:window-width="1920"
     inkscape:window-height="1057"
     id="namedview3338"
     showgrid="false"
     inkscape:zoom="3.2888889"
     inkscape:cx="104.44257"
     inkscape:cy="135"
     inkscape:window-x="-8"
     inkscape:window-y="-8"
     inkscape:window-maximized="1"
     inkscape:current-layer="svg3336" /><g
     id="g3344"
     inkscape:groupmode="layer"
     inkscape:label="Bike Against"
     transform="matrix(1.25,0,0,-1.25,0,270)"><g
       id="g3346"><g
         id="g3348"
         clip-path="url(#clipPath3350)"><g
           id="g3354"
           transform="translate(153.6037,177.7525)"><path
             d="m 0,0 c -3.467,-0.322 -5.272,-5.755 -10.218,-2.826 -5.344,3.165 1.03,9.658 -3.62,9.81 -3.019,-3.72 -4.166,-5.548 -7.558,-4.876 -4.628,0.916 -3.473,8.078 -3.956,8.883 -0.753,1.257 -2.045,0.319 -2.045,0.319 -2.371,-2.518 -2.62,-6.302 -7.345,-5.768 -4.829,0.544 -3.577,4.06 -5.262,7.5 -4.655,0.688 -1.574,-5.643 -6.717,-6.653 -4.634,-0.909 -6.8,5.609 -7.174,6.108 -0.585,0.78 -2.217,-0.204 -2.217,-0.204 -1.738,-3.883 0.114,-7.447 -4.952,-8.064 -3.493,-0.425 -6.291,5.32 -6.999,5.878 -0.708,0.558 -2.002,-0.303 -2.188,-0.789 -0.187,-0.486 1.146,-7.653 -4.432,-9.071 -4.27,-0.357 -6.203,6.01 -8.239,4.199 -2.11,-1.877 2.662,-6.924 -2.308,-9.709 -4.747,-2.66 -5.906,1.912 -9.009,2.292 l -1.031,-0.68 c -0.3,-3.669 3.443,-6.495 -0.605,-9.581 -3.638,-2.773 -5.683,0.188 -9.12,1.049 0,0 -1.36,-0.319 -1.11,-1.319 0.25,-1 4.046,-5.581 1.645,-8.707 -2.63,-3.424 -5.663,-1.435 -9.625,-0.924 0,0 -0.549,0.318 -0.859,-0.803 -0.411,-1.482 4.756,-5.399 3.44,-8.791 -1.871,-4.562 -6.171,-2.562 -8.667,-2.983 l -0.778,-0.283 c -0.04,0.072 -0.158,-0.077 -0.223,-0.134 -2.297,-2.685 5.5,-3.784 4.313,-8.836 -1.334,-5.678 -6.249,-2.996 -9.242,-4.767 -0.256,-2.161 0.316,-1.722 3.36,-3.618 1.661,-1.035 2.491,-1.831 2.349,-4.494 -0.296,-4.66 -6.91,-5.018 -7.895,-5.63 -0.984,-0.613 -0.014,-1.768 -0.014,-1.768 3.142,-2.181 7.588,-1.211 7.187,-6.704 -0.241,-3.3 -2.397,-3.398 -5.651,-5.009 -1.43,-0.707 -1.181,-0.299 -1.248,-2.033 0.642,-0.978 1.461,-0.916 2.694,-1.235 2.956,-0.762 5.754,-1.166 5.883,-5.122 0.162,-4.934 -8.028,-5.131 -5.56,-7.95 0.624,-0.63 2.085,-0.516 3.401,-0.566 2.093,-0.081 5.667,0.193 6.362,-4.194 0.799,-5.049 -6.492,-5.144 -4.37,-8.453 1.405,-1.169 7.408,2.52 9.882,-2.833 2.103,-4.551 -3.905,-5.966 -2.398,-9.508 3.259,-0.978 6.21,3.326 9.805,-1.007 3.193,-3.848 -2.119,-6.779 -0.722,-9.532 2.798,-1.157 6.488,3.635 10.198,1.097 4.072,-2.784 -0.528,-7.74 0.999,-9.937 1.375,-1.977 5.398,3.357 8.308,3.054 4.373,-0.454 3.8,-4.788 3.804,-9.024 1.68,-2.268 3.282,0.256 4.453,1.307 1.356,1.218 2.1,2.701 5.042,2.105 2.162,-0.438 3.189,-1.577 3.474,-3.832 0.607,-4.81 -0.215,-4.683 2.591,-4.913 2.168,2.208 3.016,5.94 7.342,5.39 4.224,-0.537 3.189,-4.617 4.914,-7.795 0,0 1.496,-0.999 2.11,0.008 0.613,1.008 2.262,6.79 5.991,6.896 4.24,0.119 4.41,-3.629 6.26,-6.566 0,0 0.752,-1.102 2.099,0.121 1.346,1.223 -0.063,7.188 5.102,8.146 2.432,0.452 3.705,-0.293 4.625,-1.646 0.782,-1.149 1.999,-2.755 2.445,-3.924 0,0 1.627,-0.51 2.067,0.569 0.441,1.078 -1.012,8.217 4.145,9.241 4.375,0.869 5.212,-4.031 7.769,-4.525 0,0 0.685,-0.33 1.18,0.453 0.68,1.076 -2.153,7.993 2.506,10.187 4.222,1.922 5.95,-2.793 8.595,-3.278 l 1.162,0.528 c 0.01,4.528 -3.596,7.003 0.683,10.205 3.781,2.83 6.653,-2.048 9.476,-1.093 1.536,3.093 -4.329,6.206 -1.255,10.44 3.467,4.778 7.937,-0.735 10.265,0.88 1.562,2.652 -5.006,4.936 -3.268,9.678 0.655,1.786 1.802,2.916 4.033,2.958 2.411,0.045 5.028,-0.797 5.913,0.235 1.966,2.631 -5.223,3.535 -4.592,8.616 0.718,5.785 7.729,3.04 9.178,5.124 1.355,3.061 -5.926,2.06 -5.699,7.576 0.433,5.02 7.348,6.009 7.849,6.348 0.501,0.339 0.417,1.255 -0.083,1.839 -0.5,0.583 -1.782,0.684 -2.177,0.844 -2.953,1.202 -4.798,1.502 -4.887,4.72 0.064,4.602 6.451,5.756 6.841,6.346 0.39,0.59 0.22,1.266 -0.111,1.761 -0.332,0.495 -8.166,1.412 -8.499,5.079 -0.583,3 1.296,4.205 2.791,5.274 0.588,0.421 1.603,1.036 2.09,1.429 1.227,0.988 1.022,0.68 0.674,2.494 -4.211,0.982 -8.378,-0.431 -9.388,3.917 -0.952,4.095 3.841,5.616 4.449,8.114 l -0.551,1.159 c -2.19,0.339 -4.554,-0.542 -6.548,-0.271 -1.63,0.221 -3.121,1.687 -3.642,3.366 -0.745,2.404 0.754,3.685 1.683,4.849 1.811,2.269 2.094,1.719 1.264,4.207 -4.278,-0.245 -6.835,-2.993 -10.052,0.378 -2.855,2.99 1.152,8.136 1.149,9.027 -0.002,0.89 -0.364,1.342 -1.308,1.283 -0.944,-0.06 -6.51,-4.22 -9.927,-0.729 C -2.178,-6.94 0.045,-4.683 0.635,-1.77 0.872,-0.599 0.808,-0.94 0,0 m -68.238,-22.589 c -0.071,-0.061 -0.183,-0.054 -0.219,-0.175 l -0.44,-0.332 c -0.059,-0.041 -0.155,-0.108 -0.222,-0.151 -4.674,-3.096 -5.371,-2.902 -11.021,-7.579 -1.175,-0.974 -2.457,-2.472 -3.637,-3.163 -2.48,1.661 -8.737,7.844 -15.26,1.025 -5.796,-6.057 -16.604,-34.947 -7.631,-41.219 2.974,-2.078 5.734,-1.763 9.718,-1.391 0.613,-7.039 3.869,-13.527 6.189,-19.274 -1.3,-1.349 -9.169,-4.031 -7.05,-11.293 1.123,-3.853 5.928,-9.262 7.953,-11.047 4.663,-4.111 15.844,-13.298 25.416,-13.075 l 4.066,19.237 c 3.497,17.87 -2.818,14.461 -13.536,31.395 -5.902,9.326 -1.156,11.33 -0.401,18.201 l -5.636,0.046 c -1.71,-1.988 -3.282,-6.919 -9.667,-6.145 -2.94,0.356 -6.078,2.231 -8.029,4.21 -3.223,3.268 2.403,2.713 4.063,2.707 4.842,-0.015 5.522,-0.959 8.345,4.184 -0.506,1.162 -2.094,3.227 -3.092,4.2 -2.112,0.22 -8.742,-0.507 -9.958,0.613 -0.76,2.054 3.463,5.077 5.531,6.002 5.638,2.522 8.912,-1 11.942,-4.305 1.477,-1.612 1.573,-1.624 4.38,-1.628 1.821,-0.003 4.259,-0.157 5.993,-0.038 2.111,0.145 0.776,-0.141 2.001,0.875 0.638,0.53 1.215,0.779 1.769,1.331 0.171,4.468 0.478,8.47 4.658,9.112 4.193,0.644 7.481,-2.95 7.009,-6.997 -2.023,-1.081 -5.408,-1.027 -7.78,-0.902 -2.718,0.142 -2.278,-0.079 -2.641,-0.86 0.868,-1.171 3.094,-0.913 5.461,-0.885 1.992,0.024 4.097,0.256 5.883,0.649 3.986,0.876 7.354,1.344 6.931,-3.917 -0.573,-7.129 -8.477,-8.616 -15.81,-8.656 -0.168,-2.364 -0.151,-4.132 -0.716,-6.312 -0.81,-3.13 -1.663,-2.52 -0.905,-6.039 2.77,1.622 2.896,7.16 3.416,10.532 l 5.405,0.479 c 1.008,-2.64 1.777,-10.436 -2.749,-12.006 -1.795,-0.622 -2.877,0.547 -3.907,1.073 l -1.049,-1.311 c 0.901,-1.283 2.587,-2.184 4.888,-1.873 2.208,0.298 2.814,1.63 3.857,2.901 2.446,2.981 1.266,7.805 1.004,11.971 2.112,1.411 6.792,1.705 7.935,7.969 1.283,7.036 -1.602,7.871 -7.563,7.181 -0.588,8.95 14.6,15.828 12.243,-7.316 -0.496,-4.864 -0.471,-12.335 -1.773,-16.576 -0.706,-2.297 -1.982,-4.621 -3.936,-5.248 -3.357,-1.077 -4.493,1.636 -5.741,2.981 -2.041,-4.126 4.498,-6.046 7.415,-4.263 5.238,3.202 5.185,17.552 5.729,23.787 0.465,5.331 -0.253,8.665 3.035,11.8 3.589,3.422 7.557,1.475 8.403,-3.171 0.759,-4.167 0.253,-10.03 -0.339,-14.158 -0.459,-3.194 -1.583,-9.557 -2.912,-11.839 -0.756,-1.298 -2.365,-2.92 -4.272,-3.029 -2.412,-0.136 -3.217,1.554 -4.425,2.651 l -0.604,-2.456 c 4.351,-3.409 8.204,-2.477 10.543,1.932 1.275,2.403 2.726,10.484 3.15,13.676 1.029,7.756 -0.755,11.251 2.424,14.218 1.814,1.693 4.361,2.157 5.989,0.056 1.449,-1.87 1.336,-4.248 1.654,-6.769 4.338,-0.11 6.949,-0.647 8.233,1.304 1.447,2.201 2.287,3.714 5.265,4.593 4.96,1.464 13.432,-3.39 12.206,-6.358 -1.829,-0.877 -7.17,-0.325 -9.726,-0.326 -1.376,-0.647 -2.795,-3.018 -3.441,-4.295 0.623,-1.285 2.208,-3.033 3.07,-4.178 5.294,-0.047 11.342,0.971 10.055,-1.924 -0.688,-1.549 -8.718,-10.223 -16.484,-1.45 -3.391,3.83 -3.741,2.756 -10.253,2.802 -0.689,-4.071 -1.047,-11.246 -5.725,-11.917 -2.329,-0.334 -3.201,0.924 -4.556,1.598 -0.277,-2.776 2.646,-3.657 5.117,-3.138 3.331,0.701 3.248,3.256 5.058,3.264 0.921,-2.495 -0.807,-13.19 -1.609,-15.875 -1.881,-6.299 -5.02,-7.122 -7.833,-10.797 -4.588,-5.991 -3.422,-24.245 -1.003,-31.953 11.256,-1.593 32.945,15.583 34.738,24.057 1.634,7.728 -6.428,10.609 -7.342,11.796 2.994,6.308 5.122,10.52 5.824,19.022 18.077,-2.84 14.346,16.253 10.102,27.814 -2.532,6.898 -7.58,18.357 -15.952,17.516 -3.557,-0.358 -5.639,-2.519 -7.47,-4.059 l -7.191,6.134 c -1.604,1.22 -6.443,4.437 -8.618,5.11 0.445,2.103 5.644,9.081 -3.306,14.268 -7.855,4.553 -29.844,3.912 -36.916,0.2 -1.99,-1.045 -3.885,-3.312 -4.805,-5.706 -1.446,-3.764 -0.108,-6.058 1.085,-9.098 m 55.234,5.338 c 1.732,0.857 4.243,0.284 5.155,-1.389 1.103,-2.023 0.814,-5.021 -1.645,-6.109 -4.131,-1.828 -7.402,2.959 -5.165,6.082 0.382,0.534 0.927,1.02 1.655,1.416 m -70.147,-0.241 c 5.46,1.957 7.85,-6.078 3.055,-7.771 -5.688,-2.009 -7.857,6.051 -3.055,7.771 m 8.25,-42.633 c 0.473,2.109 2.427,7.386 4.719,7.421 -0.33,-1.192 -1.26,-2.438 -1.932,-3.834 -0.839,-1.743 -0.649,-3.309 -2.787,-3.587 m 58.009,0.331 c -0.818,0.517 -0.805,-0.496 -0.577,1.699 0.149,1.424 0.449,5.434 0.928,6.082 l 0.908,-0.001 c 0.312,-1.347 0.109,-2.818 -0.05,-4.207 -0.531,-4.64 -0.283,-3.055 -1.209,-3.573 m 27.21,-23.951 c 5.521,1.871 7.457,-6.36 2.775,-7.834 -5.63,-1.773 -7.846,6.116 -2.775,7.834 m -114.315,-0.814 c 5.283,1.57 7.177,-6.748 2.196,-8.028 -5.435,-1.396 -7.638,6.41 -2.196,8.028"
             style="fill:#ffffff;fill-opacity:1;fill-rule:evenodd;stroke:none"
             id="path3356"
             inkscape:connector-curvature="0" /></g></g></g></g></svg>
